<svg width="23" height="15" viewBox="0 0 23 15" fill="none" xmlns="http://www.w3.org/2000/svg">
<path d="M14.3315 7.89941C14.3315 7.44406 14.284 7.09305 14.2176 6.74205H7.6529V9.13267H11.5993C11.4381 10.1477 10.404 12.1304 7.6529 12.1304C5.28125 12.1304 3.34598 10.1667 3.34598 7.73814C3.34598 5.30957 5.28125 3.34584 7.6529 3.34584C9.00949 3.34584 9.91071 3.92453 10.423 4.41783L12.3108 2.60589C11.0965 1.46749 9.53125 0.784458 7.6529 0.784458C3.81083 0.784458 0.699219 3.89607 0.699219 7.73814C0.699219 11.5802 3.81083 14.6918 7.6529 14.6918C11.6657 14.6918 14.3315 11.8743 14.3315 7.89941ZM22.5564 6.74205H20.5737V4.75935H18.5815V6.74205H16.5988V8.73424H18.5815V10.7169H20.5737V8.73424H22.5564V6.74205Z" fill="white"/>
</svg>
