<svg width="30" height="30" viewBox="0 0 30 30" fill="none" xmlns="http://www.w3.org/2000/svg">
<path fill-rule="evenodd" clip-rule="evenodd" d="M29.7115 14.6598C29.7115 22.6267 23.1673 29.0852 15.0945 29.0852C7.02179 29.0852 0.477539 22.6267 0.477539 14.6598C0.477539 6.69285 7.02179 0.234375 15.0945 0.234375C23.1673 0.234375 29.7115 6.69285 29.7115 14.6598ZM28.5422 14.6598C28.5422 21.9894 22.5215 27.9312 15.0945 27.9312C7.66761 27.9312 1.6469 21.9894 1.6469 14.6598C1.6469 7.3302 7.66761 1.38841 15.0945 1.38841C22.5215 1.38841 28.5422 7.3302 28.5422 14.6598ZM12.7558 11.7747V12.3517H13.9252V21.584H12.7558V22.161H13.9252H16.2639H17.4333V21.584H16.2639V11.7747H13.9252H12.7558ZM16.8486 8.88962C16.8486 9.84565 16.0633 10.6207 15.0945 10.6207C14.1258 10.6207 13.3405 9.84565 13.3405 8.88962C13.3405 7.93359 14.1258 7.15857 15.0945 7.15857C16.0633 7.15857 16.8486 7.93359 16.8486 8.88962Z" fill="#2B4074"/>
</svg>
