<svg width="16" height="16" viewBox="0 0 16 16" fill="none" xmlns="http://www.w3.org/2000/svg">
<path d="M15.007 7.73814C15.007 3.71582 11.7436 0.452427 7.72126 0.452427C3.69894 0.452427 0.435547 3.71582 0.435547 7.73814C0.435547 10.7264 2.22852 13.2878 4.79939 14.4167C4.78041 13.9044 4.7899 13.2878 4.92271 12.7376C4.92271 12.7376 5.06501 12.1494 5.86189 8.77218C5.62472 8.30734 5.62472 7.61482 5.62472 7.61482C5.62472 6.53334 6.25084 5.72698 7.02874 5.72698C7.6928 5.72698 8.01535 6.22977 8.01535 6.82743C8.01535 7.49149 7.58845 8.48758 7.37026 9.40778C7.19001 10.1857 7.75921 10.8118 8.51814 10.8118C9.90318 10.8118 10.8329 9.03781 10.8329 6.94127C10.8329 5.33803 9.7514 4.14272 7.79715 4.14272C5.58677 4.14272 4.21122 5.79339 4.21122 7.63379C4.21122 8.26939 4.40095 8.71526 4.69503 9.06627C4.82785 9.22754 4.84682 9.28446 4.79939 9.47419C4.76144 9.607 4.68555 9.92955 4.6476 10.0529C4.60017 10.2426 4.44838 10.309 4.28711 10.2426C3.27204 9.8252 2.79771 8.70578 2.79771 7.45354C2.79771 5.38546 4.54325 2.89997 7.99637 2.89997C10.7854 2.89997 12.6164 4.92062 12.6164 7.07408C12.6164 9.93903 11.0226 12.0735 8.67941 12.0735C7.89202 12.0735 7.15206 11.6466 6.90541 11.1628C6.47852 12.8419 6.39314 13.1645 6.39314 13.1645C6.24135 13.7242 5.92829 14.2839 5.65318 14.7203C6.31724 14.9195 7.00028 15.0239 7.72126 15.0239C11.7436 15.0239 15.007 11.7605 15.007 7.73814Z" fill="white"/>
</svg>
