<svg width="30" height="30" viewBox="0 0 30 30" fill="none" xmlns="http://www.w3.org/2000/svg">
<path fill-rule="evenodd" clip-rule="evenodd" d="M20.1714 3.99187C24.1926 8.01313 24.4942 14.3605 21.1039 18.8212L29.8274 27.5447L27.7602 29.6118L19.057 20.9086C14.5884 24.446 8.12322 24.1914 4.04754 20.1157C-0.34657 15.7216 -0.29926 8.55001 4.15321 4.09754C8.60568 -0.354927 15.7772 -0.402237 20.1714 3.99187ZM19.3445 4.81873C23.2879 8.76216 23.2455 15.1982 19.2497 19.194C15.2539 23.1898 8.81783 23.2323 4.8744 19.2888C0.930971 15.3454 0.973428 8.90937 4.96923 4.91356C8.96504 0.917759 15.4011 0.875302 19.3445 4.81873Z" fill="#2B4074"/>
</svg>
